HIERARCHY
ROOT hip
{
	OFFSET 0.000000 0.000000 0.000000
	CHANNELS 6 Xposition Yposition Zposition Xrotation Zrotation Yrotation 
	JOINT abdomen
	{
		OFFSET 0.000000 3.422050 0.000000
		CHANNELS 3 Xrotation Zrotation Yrotation 
		JOINT chest
		{
			OFFSET 0.000000 8.486693 -0.684411
			CHANNELS 3 Xrotation Zrotation Yrotation 
			JOINT neck
			{
				OFFSET 0.000000 10.266162 -0.273764
				CHANNELS 3 Xrotation Zrotation Yrotation 
				JOINT head
				{
					OFFSET 0.000000 3.148285 0.000000
					CHANNELS 3 Xrotation Zrotation Yrotation 
					End Site
					{
						OFFSET 0.000000 3.148289 0.000000
					}
				}
			}
			JOINT lCollar
			{
				OFFSET 3.422053 6.707223 -0.821293
				CHANNELS 3 Yrotation Zrotation Xrotation 
				JOINT lShldr
				{
					OFFSET 3.285171 0.000000 0.000000
					CHANNELS 3 Zrotation Yrotation Xrotation 
					JOINT lForeArm
					{
						OFFSET 10.129278 0.000000 0.000000
						CHANNELS 3 Yrotation Zrotation Xrotation 
						JOINT lHand
						{
							OFFSET 8.486692 0.000000 0.000000
							CHANNELS 3 Zrotation Yrotation Xrotation 
							End Site
							{
								OFFSET 4.106464 0.000000 0.000000
							}
						}
					}
				}
			}
			JOINT rCollar
			{
				OFFSET -3.558935 6.707223 -0.821293
				CHANNELS 3 Yrotation Zrotation Xrotation 
				JOINT rShldr
				{
					OFFSET -3.148289 0.000000 0.000000
					CHANNELS 3 Zrotation Yrotation Xrotation 
					JOINT rForeArm
					{
						OFFSET -10.266159 0.000000 0.000000
						CHANNELS 3 Yrotation Zrotation Xrotation 
						JOINT rHand
						{
							OFFSET -8.349810 0.000000 0.000000
							CHANNELS 3 Zrotation Yrotation Xrotation 
							End Site
							{
								OFFSET -4.106464 0.000000 0.000000
							}
						}
					}
				}
			}
		}
	}
	JOINT lThigh
	{
		OFFSET 5.338403 -1.642589 1.368821
		CHANNELS 3 Xrotation Zrotation Yrotation 
		JOINT lShin
		{
			OFFSET -2.053232 -20.121670 0.000000
			CHANNELS 3 Xrotation Zrotation Yrotation 
			JOINT lFoot
			{
				OFFSET 0.000000 -19.300380 -1.231939
				CHANNELS 3 Xrotation Yrotation Zrotation 
				End Site
				{
					OFFSET 0.000000 -2.463878 4.653993
				}
			}
		}
	}
	JOINT rThigh
	{
		OFFSET -5.338403 -1.642589 1.368821
		CHANNELS 3 Xrotation Zrotation Yrotation 
		JOINT rShin
		{
			OFFSET 2.053232 -20.121670 0.000000
			CHANNELS 3 Xrotation Zrotation Yrotation 
			JOINT rFoot
			{
				OFFSET 0.000000 -19.300380 -1.231939
				CHANNELS 3 Xrotation Yrotation Zrotation 
				End Site
				{
					OFFSET 0.000000 -2.463878 4.653993
				}
			}
		}
	}
}
MOTION
Frames: 14
Frame Time: 0.033264
0.000000 43.528500 0.000000 0.000000 0.000000 0.000000 0.000000 0.000000 0.000000 0.000000 0.000000 0.000000 0.000000 0.000000 0.000000 0.000000 0.000000 0.000000 0.000000 0.000000 0.000000 0.000000 0.000000 0.000000 0.000000 0.000000 0.000000 0.000000 0.000000 0.000000 0.000000 0.000000 0.000000 0.000000 0.000000 0.000000 0.000000 0.000000 0.000000 0.000000 0.000000 0.000000 0.000000 0.000000 0.000000 0.000000 0.000000 0.000000 0.000000 0.000000 0.000000 0.000000 0.000000 0.000000 0.000000 0.000000 0.000000 0.000000 0.000000 0.000000 
-2.976697 20.781179 3.913887 24.002764 0.047127 -178.228653 33.418072 -2.121205 -8.133933 -27.119390 -2.356745 -0.635112 0.000000 0.000000 0.000000 0.000000 0.000000 0.000000 -4.324835 -25.064358 -9.291433 -1.741815 -27.666912 -23.148035 -83.063820 -29.536924 -26.240965 -50.708420 27.182718 -31.369478 0.935013 17.141943 -8.482572 0.762478 45.287880 -21.404949 89.723412 22.296858 -22.273571 22.713163 1.679274 -34.625450 -113.373520 37.469994 -43.543438 115.866158 1.884587 -48.112801 9.361533 26.767754 11.956163 24.480412 -13.227196 0.739959 91.561295 3.416481 43.833076 55.530167 -35.427387 9.614179 
-2.976697 20.690399 3.966618 25.054106 0.048435 -178.223495 33.418072 -2.121205 -8.133933 -24.466616 -2.356641 -0.635156 -0.115433 -0.201180 -0.151855 -0.308046 0.000000 0.000000 -5.535721 -24.006824 -10.801821 -1.741815 -27.666916 -23.148035 -80.964859 -29.386459 -25.199936 -50.567352 25.781073 -30.776323 1.781121 16.403841 -10.327167 0.762478 45.287888 -21.404951 88.935249 22.267271 -21.971338 22.602703 2.071616 -34.899773 -113.148659 37.879894 -43.523376 115.866158 1.884587 -48.112801 12.363784 27.477430 10.676100 25.419786 -13.312744 0.704190 91.799088 3.389055 43.836147 55.530163 -35.427387 9.614178 
-2.976697 20.599621 4.019350 26.106874 0.049650 -178.218277 33.418076 -2.121206 -8.133934 -21.789930 -2.356535 -0.635196 -0.230381 -0.402747 -0.303368 -0.616248 0.000000 0.000000 -6.710318 -22.916962 -12.280685 -1.741815 -27.666912 -23.148037 -78.864059 -29.202108 -24.163305 -50.443516 24.374283 -30.192106 2.602725 15.636513 -12.161861 0.762479 45.287880 -21.404949 88.146912 22.233816 -21.669434 22.490299 2.463539 -35.175011 -112.922310 38.289841 -43.501156 115.866158 1.884587 -48.112801 15.424140 28.130548 9.337879 26.360565 -13.397805 0.666930 92.036903 3.361615 43.839115 55.530170 -35.427387 9.614182 
-2.976697 20.508841 4.072081 27.160906 0.050770 -178.213058 33.418076 -2.121205 -8.133934 -19.091961 -2.356426 -0.635232 -0.344845 -0.604697 -0.454542 -0.924600 0.000000 0.000000 -7.848456 -21.796467 -13.727974 -1.741815 -27.666916 -23.148035 -76.763809 -28.983950 -23.133356 -50.336338 22.962965 -29.616041 3.398674 14.841100 -13.985673 0.762477 45.287888 -21.404953 87.358521 22.196495 -21.367958 22.375940 2.855016 -35.451168 -112.694397 38.699791 -43.476707 115.866158 1.884587 -48.112801 18.537888 28.722530 7.945442 27.302616 -13.482337 0.628189 92.274696 3.334158 43.841946 55.530167 -35.427387 9.614179 
-2.976697 20.418062 4.124813 28.216003 0.051794 -178.207809 33.418072 -2.121205 -8.133933 -16.375484 -2.356315 -0.635262 -0.458824 -0.807026 -0.605376 -1.233099 0.000000 0.000000 -8.950102 -20.647022 -15.143761 -1.741815 -27.666910 -23.148031 -74.666519 -28.732182 -22.112339 -50.245316 21.547756 -29.047401 4.167923 14.018809 -15.797710 0.762477 45.287880 -21.404949 86.570198 22.155317 -21.067005 22.259636 3.246025 -35.728283 -112.464882 39.109741 -43.450012 115.866158 1.884586 -48.112797 21.699429 29.249147 6.503613 28.245815 -13.566304 0.587977 92.512527 3.306691 43.844681 55.530167 -35.427387 9.614179 
-2.976697 20.327282 4.177544 29.272001 0.052723 -178.202530 33.418072 -2.121205 -8.133933 -13.643385 -2.356202 -0.635287 -0.572318 -1.009729 -0.755871 -1.541739 0.000000 0.000000 -10.015358 -19.470381 -16.528271 -1.741815 -27.666910 -23.148033 -72.574478 -28.447140 -21.102430 -50.169998 20.129301 -28.485512 4.909540 13.170945 -17.597193 0.762479 45.287880 -21.404947 85.782051 22.110294 -20.766668 22.141354 3.636534 -36.006340 -112.233749 39.519680 -43.421032 115.866158 1.884587 -48.112801 24.902311 29.706610 5.018067 29.190041 -13.649669 0.546305 92.750320 3.279212 43.847286 55.530159 -35.427383 9.614178 
-2.976697 20.236504 4.230276 30.328722 0.053555 -178.197235 33.418072 -2.121205 -8.133933 -10.898656 -2.356087 -0.635307 -0.685328 -1.212802 -0.906029 -1.850517 0.000000 0.000000 -11.044426 -18.268276 -17.881821 -1.741815 -27.666910 -23.148033 -70.489967 -28.129301 -20.105749 -50.109959 18.708225 -27.929699 5.622694 12.298864 -19.383430 0.762478 45.287880 -21.404949 84.994148 22.061432 -20.467022 22.021116 4.026525 -36.285385 -112.000931 39.929581 -43.389725 115.866158 1.884587 -48.112801 28.139311 30.091656 3.495277 30.135170 -13.732402 0.503186 92.988152 3.251719 43.849792 55.530167 -35.427387 9.614179 
-2.976697 20.145723 4.283007 31.385981 0.054289 -178.191940 33.418072 -2.121205 -8.133933 -8.144382 -2.355972 -0.635321 -0.797853 -1.416241 -1.055851 -2.159428 0.000000 0.000000 -12.037630 -17.042482 -19.204870 -1.741816 -27.666916 -23.148039 -68.415169 -27.779268 -19.124325 -50.064777 17.285164 -27.379316 6.306670 11.404012 -21.155851 0.762478 45.287880 -21.404949 84.206650 22.008745 -20.168169 21.898895 4.415967 -36.565411 -111.766373 40.339405 -43.356022 115.866158 1.884587 -48.112801 31.402481 30.401606 1.942416 31.081087 -13.814466 0.458635 93.225960 3.224217 43.852177 55.530163 -35.427387 9.614178 
-2.976697 20.054945 4.335739 32.443596 0.054926 -178.186600 33.418076 -2.121206 -8.133934 -5.383711 -2.355855 -0.635330 -0.909895 -1.620042 -1.205337 -2.468468 0.000000 0.000000 -12.995358 -15.794747 -20.497923 -1.741816 -27.666914 -23.148037 -66.352135 -27.397757 -18.160057 -50.034134 15.860746 -26.833773 6.960846 10.487864 -22.913960 0.762479 45.287880 -21.404949 83.419601 21.952242 -19.870186 21.774685 4.804835 -36.846439 -111.530075 40.749161 -43.319920 115.866158 1.884588 -48.112801 34.683331 30.634481 0.367237 32.027653 -13.895825 0.412666 93.463776 3.196707 43.854458 55.530167 -35.427387 9.614179 
-2.976697 19.964165 4.388470 33.501392 0.055464 -178.181259 33.418072 -2.121205 -8.133933 -2.619823 -2.355738 -0.635333 -1.021451 -1.824201 -1.354487 -2.777632 0.000000 0.000000 -13.918079 -14.526827 -21.761581 -1.741816 -27.666918 -23.148037 -64.302841 -26.985611 -17.214754 -50.017708 14.435616 -26.292492 7.584719 9.551967 -24.657385 0.762478 45.287891 -21.404953 82.633171 21.891956 -19.573174 21.648495 5.193107 -37.128510 -111.291954 41.158817 -43.281338 115.866158 1.884586 -48.112801 37.972954 30.789021 -1.222074 32.974739 -13.976446 0.365295 93.701584 3.169181 43.856609 55.530167 -35.427387 9.614179 
-2.976697 19.873384 4.441202 34.559189 0.055903 -178.175919 33.418072 -2.121204 -8.133933 0.144066 -2.355620 -0.635330 -1.132524 -2.028713 -1.503305 -3.086918 0.000000 0.000000 -14.806329 -13.240465 -22.996525 -1.741816 -27.666910 -23.148035 -62.269108 -26.543776 -16.290071 -50.015182 13.010395 -25.754902 8.177868 8.597889 -26.385820 0.762479 45.287876 -21.404947 81.847404 21.827890 -19.277203 21.520298 5.580754 -37.411610 -111.051941 41.568344 -43.240238 115.866158 1.884586 -48.112797 41.262184 30.864714 -2.817086 33.922230 -14.056298 0.316540 93.939384 3.141654 43.858654 55.530167 -35.427387 9.614179 
-2.976697 19.782606 4.493933 35.616814 0.056244 -178.170563 33.418072 -2.121205 -8.133933 2.904738 -2.355504 -0.635322 -1.243113 -2.233575 -1.651791 -3.396317 0.000000 0.000000 -15.660691 -11.937395 -24.203472 -1.741815 -27.666912 -23.148035 -60.252644 -26.073288 -15.387528 -50.026321 11.585723 -25.220478 8.739968 7.627232 -28.099039 0.762478 45.287880 -21.404949 81.062447 21.760073 -18.982368 21.390093 5.967749 -37.695763 -110.809998 41.977711 -43.196556 115.866158 1.884588 -48.112797 44.541813 30.861807 -4.409301 34.869999 -14.135345 0.266420 94.177177 3.114111 43.860584 55.530163 -35.427387 9.614178 
-2.976697 19.691826 4.546665 36.674068 0.056486 -178.165207 33.418072 -2.121205 -8.133933 5.659013 -2.355388 -0.635308 -1.353218 -2.438781 -1.799944 -3.705828 0.000000 0.000000 -16.481781 -10.619311 -25.383183 -1.741815 -27.666912 -23.148035 -58.254978 -25.575279 -14.508502 -50.050892 10.162218 -24.688694 9.270787 6.641621 -29.796906 0.762478 45.287880 -21.404949 80.278389 21.688522 -18.688753 21.257877 6.354069 -37.980999 -110.566093 42.386917 -43.150265 115.866158 1.884587 -48.112801 47.802795 30.781330 -5.990343 35.817898 -14.213553 0.214955 94.414948 3.086570 43.862396 55.530170 -35.427387 9.614179 
